<svg width="1338" height="69" viewBox="0 0 1338 69" fill="none" xmlns="http://www.w3.org/2000/svg">
<g clip-path="url(#clip0_64_94)">
<path d="M20.7271 10.9258H22.2237C27.4197 11.0383 32.5309 13.119 36.2019 16.8024C34.8465 18.1801 33.4628 19.5017 32.1356 20.8794C30.0741 19.0237 27.5891 17.5897 24.8782 17.0836C20.8683 16.24 16.5477 16.9992 13.1873 19.2767C9.51627 21.6667 7.03126 25.7157 6.49472 30.0458C5.90171 34.3197 7.11598 38.8185 9.91162 42.1364C12.5943 45.3699 16.6889 47.3944 20.9247 47.535C24.8782 47.7599 29.001 46.5509 31.8814 43.7953C34.1405 41.8552 35.1853 38.9029 35.5242 36.0349C30.8366 36.0349 26.1489 36.063 21.4613 36.0349V30.2426H41.2002C42.2168 36.4566 40.7484 43.4579 36.0043 47.9005C32.8415 51.0497 28.4645 52.9055 24.0028 53.271C19.6822 53.6928 15.2205 52.8773 11.38 50.7966C6.77711 48.3504 3.10607 44.2171 1.29878 39.3527C-0.395544 34.882 -0.423782 29.8209 1.15759 25.322C2.59777 21.2168 5.36517 17.5897 8.92326 15.0591C12.3402 12.5566 16.4913 11.1788 20.7271 10.9258Z" fill="#CFCFDE"/>
<path d="M133.965 12.3868H140.008V52.5388C138.003 52.5388 135.97 52.5669 133.965 52.5107C133.993 39.1548 133.965 25.7708 133.965 12.3868Z" fill="#CFCFDE"/>
<path d="M54.6421 26.305C58.3696 25.6021 62.4077 26.3894 65.4858 28.6107C68.2814 30.5789 70.2299 33.6719 70.8229 37.046C71.5854 40.9543 70.6252 45.2282 68.0837 48.3212C65.3446 51.7796 60.8546 53.6354 56.4776 53.3542C52.4677 53.1293 48.5707 51.1329 46.1987 47.8713C43.516 44.2722 42.8665 39.3235 44.3349 35.1059C45.8033 30.5789 49.9544 27.1204 54.6421 26.305ZM55.4892 31.6474C53.9643 32.041 52.5524 32.9127 51.5358 34.1499C48.7966 37.4115 48.9661 42.7257 51.9876 45.7624C53.7102 47.5057 56.3082 48.3212 58.7085 47.8432C60.9393 47.4495 62.8878 45.9593 63.9609 43.991C65.8246 40.645 65.2881 36.0337 62.436 33.4188C60.6005 31.7317 57.9178 31.0288 55.4892 31.6474Z" fill="#CFCFDE"/>
<path d="M84.5752 26.305C88.8392 25.4896 93.4986 26.6706 96.6896 29.651C101.886 34.2904 102.45 42.9788 98.0168 48.3212C95.3342 51.6953 90.9854 53.551 86.6931 53.3542C82.5985 53.2417 78.5603 51.2173 76.1318 47.8713C73.3926 44.1879 72.7996 39.1267 74.3527 34.8247C75.9059 30.4383 79.9723 27.0923 84.5752 26.305ZM85.4223 31.6474C83.8975 32.041 82.4855 32.9127 81.4689 34.1217C78.758 37.3271 78.871 42.557 81.7795 45.6219C83.5021 47.4495 86.1848 48.3493 88.6698 47.8432C90.8724 47.4214 92.8491 45.9593 93.9222 43.991C95.7577 40.6169 95.2212 36.0056 92.3408 33.3907C90.5053 31.7036 87.8226 31.0288 85.4223 31.6474Z" fill="#CFCFDE"/>
<path d="M109.962 27.9359C113.209 25.9114 117.53 25.349 121.031 27.0923C122.133 27.5703 123.036 28.3857 123.912 29.2012C123.94 28.442 123.912 27.6547 123.94 26.8674C125.832 26.8955 127.724 26.8674 129.644 26.8955V51.6953C129.616 55.4349 128.656 59.3995 125.945 62.1269C122.98 65.1355 118.434 66.0634 114.339 65.4448C109.962 64.7981 106.15 61.6208 104.455 57.6C106.15 56.7846 107.929 56.1379 109.679 55.3787C110.668 57.6843 112.673 59.6526 115.186 60.1025C117.699 60.5523 120.608 59.9338 122.246 57.8531C123.997 55.7161 123.997 52.7919 123.912 50.1769C122.613 51.4422 121.116 52.5669 119.309 52.9887C115.384 54.0853 111.063 52.7356 108.042 50.0926C104.992 47.4495 103.185 43.3725 103.354 39.3235C103.439 34.7403 106.037 30.3259 109.962 27.9359ZM115.807 31.5349C114.085 31.8161 112.475 32.7721 111.374 34.0936C108.719 37.2428 108.719 42.2759 111.402 45.3688C112.927 47.1965 115.384 48.2087 117.756 47.9556C119.987 47.7307 122.048 46.3248 123.149 44.3847C125.013 41.0949 124.703 36.6242 122.189 33.7562C120.636 31.9848 118.151 31.1132 115.807 31.5349Z" fill="#CFCFDE"/>
<path d="M147.265 29.3698C150.654 26.2207 155.878 25.1522 160.227 26.8111C164.35 28.3576 166.976 32.266 168.303 36.2868C162.175 38.8174 156.076 41.3199 149.948 43.8505C150.795 45.4532 152.094 46.9153 153.845 47.5058C156.302 48.3774 159.239 48.0681 161.3 46.4373C162.119 45.8187 162.768 45.0033 163.39 44.216C164.943 45.2563 166.496 46.2686 168.049 47.3089C165.846 50.5987 162.147 52.9043 158.166 53.2699C153.76 53.8041 149.073 52.1171 146.22 48.6867C141.533 43.2881 141.985 34.2342 147.265 29.3698ZM150.287 34.5716C149.327 35.9494 148.931 37.6364 148.96 39.2954C153.054 37.6083 157.149 35.9213 161.244 34.2061C160.566 32.6315 158.928 31.6755 157.262 31.4224C154.579 30.9444 151.784 32.3784 150.287 34.5716Z" fill="#CFCFDE"/>
</g>
<path d="M1310.46 16.8328V0.930969H1313.71V14.6005C1312.81 15.052 1311.58 15.9048 1310.46 16.8328ZM1304.82 21.6234C1305.82 20.4195 1306.84 19.2156 1308.06 18.1872V0.930969H1304.82V21.6234ZM1267.23 34.2646C1267.23 38.5034 1268.9 42.5416 1271.97 45.6267C1275.02 48.6866 1279.04 50.3922 1283.28 50.3922C1285.08 50.3922 1286.92 50.016 1288.22 49.3638V46.1032C1286.7 46.7553 1284.85 47.1316 1283.28 47.1316C1276.34 47.1316 1270.5 41.2624 1270.5 34.2897V31.3551C1270.5 24.3824 1276.37 18.5133 1283.28 18.5133C1286.72 18.5133 1289.94 19.8426 1292.34 22.2505C1294.74 24.6583 1296.06 27.8939 1296.06 31.3551V50.4173H1299.3V30.7281C1299.1 26.5645 1297.33 22.6769 1294.34 19.7674C1291.32 16.8579 1287.4 15.2527 1283.28 15.2527C1279.06 15.2527 1275.04 16.9331 1271.97 20.0182C1268.93 23.0782 1267.23 27.1163 1267.23 31.3802V34.2646ZM1315.8 26.4391C1317.27 24.9593 1319.17 24.1316 1321.04 24.1316C1325.06 24.1316 1328.18 27.2919 1328.18 31.305V34.2395C1328.18 38.2777 1325.04 41.4129 1321.04 41.4129C1319.1 41.4129 1317.22 40.3344 1315.75 38.4031C1314.45 36.6976 1313.61 34.365 1313.48 32.2832L1310.86 35.5438C1311.38 38.0018 1312.66 40.3846 1314.48 42.04C1316.35 43.7455 1318.7 44.6986 1321.04 44.6986C1326.78 44.6986 1331.45 40.0084 1331.45 34.2646V31.3301C1331.45 28.5961 1330.35 25.9876 1328.36 24.0062C1326.36 21.9996 1323.76 20.896 1321.04 20.896C1319.32 20.896 1316.6 21.5231 1313.36 24.4577C1312.48 25.3355 1310.44 27.3922 1309.19 28.847C1307.09 31.1545 1304.07 34.5907 1301.48 38.0771V43.1687C1304.35 39.4566 1305.99 37.3748 1308.71 34.2395C1311.11 31.3802 1314.1 27.944 1315.8 26.4391ZM1239.13 20.2941V16.4315C1236.18 14.8513 1232.99 14.1491 1228.75 14.1491C1224.4 14.1491 1220.28 15.7543 1217.16 18.6387C1214.02 21.5482 1212.3 25.3606 1212.3 29.4238V30.4773C1212.3 38.9048 1219.01 45.7521 1227.3 45.7521C1234.01 45.7521 1236.78 43.5449 1237.48 42.8426V33.0356H1226.5V36.2962H1234.44V41.2123H1234.41C1233.39 41.6136 1231.27 42.4664 1227.3 42.4664C1224.15 42.4664 1221.18 41.2374 1218.99 38.98C1216.77 36.7226 1215.57 33.7128 1215.57 30.4522V29.3988C1215.57 22.9026 1221.61 17.3846 1228.77 17.3846C1233.69 17.4097 1236.63 18.2374 1239.13 20.2941ZM1262.79 24.1316C1264.01 24.1316 1265.06 24.3323 1265.91 24.7336C1266.31 23.7303 1266.73 22.8775 1267.33 21.8742C1266.46 21.2472 1264.34 20.8459 1262.79 20.8459C1256.87 20.8459 1252.41 25.3355 1252.41 31.305V50.3671H1255.65V31.305C1255.65 27.0912 1258.57 24.1316 1262.79 24.1316ZM1206.66 29.4238V30.4773C1206.66 36.1458 1208.8 41.4129 1212.67 45.3508C1216.54 49.2635 1221.73 51.4206 1227.27 51.4206C1231.74 51.4206 1235.68 50.4173 1239.03 48.4107C1241.77 46.7553 1243 45.0999 1243.1 44.9495V27.3922H1226.5V30.6529H1239.85V43.9713C1238.28 45.5514 1234.56 48.185 1227.3 48.185C1222.56 48.185 1218.16 46.354 1214.92 43.0432C1211.7 39.7575 1209.93 35.293 1209.93 30.5024V29.4489C1209.93 24.9091 1211.95 20.3944 1215.49 17.0585C1219.11 13.6474 1223.83 11.7663 1228.77 11.7663C1233.39 11.7663 1236.58 12.4686 1239.15 14.0487V10.3617C1236.46 9.20795 1233.24 8.70631 1228.75 8.70631C1216.77 8.70631 1206.66 18.1872 1206.66 29.4238ZM1293.64 50.3671V31.305C1293.64 25.4358 1289.07 20.8459 1283.23 20.8459C1280.51 20.8459 1277.91 21.9495 1275.92 23.956C1273.92 25.9626 1272.82 28.5711 1272.82 31.2799V34.2145C1272.82 39.8829 1277.59 44.6485 1283.21 44.6485C1284.75 44.6485 1286.85 44.2723 1288.15 43.1937V39.8077C1286.87 40.836 1285.05 41.438 1283.21 41.438C1279.21 41.438 1276.07 38.2777 1276.07 34.2646V31.3301C1276.07 27.2919 1279.21 24.1567 1283.21 24.1567C1287.22 24.1567 1290.34 27.317 1290.34 31.3301V50.3922H1293.64V50.3671ZM1262.79 18.4631C1264.99 18.4631 1266.91 18.9397 1268.63 19.9179C1269.43 18.8895 1270.25 18.0869 1270.88 17.4598C1269.05 16.0553 1265.96 15.2025 1262.81 15.2025C1258.3 15.2025 1254.2 16.8328 1251.28 19.8175C1248.39 22.7521 1246.79 26.8404 1246.79 31.3301V50.3922H1250.04V31.3301C1250.01 23.7554 1255.25 18.4631 1262.79 18.4631ZM1332.35 19.968C1329.3 16.9081 1325.29 15.2025 1321.04 15.2025C1317.95 15.2025 1314.85 16.3563 1313.13 17.51C1309.59 19.8677 1306.69 22.4511 1301.45 29.2483V34.1392C1305.89 28.3202 1310.09 23.7554 1313.28 21.2221C1315.38 19.5416 1318.35 18.4882 1321.04 18.4882C1327.98 18.4882 1333.82 24.3824 1333.82 31.3301V34.2646C1333.82 37.7008 1332.47 40.9364 1330.03 43.3693C1327.61 45.7772 1324.41 47.1065 1321.04 47.1065C1315.35 47.1065 1310.34 43.1687 1308.99 37.8262L1306.69 40.6103C1308.36 46.2286 1314.4 50.3671 1321.04 50.3671C1325.29 50.3671 1329.28 48.6616 1332.35 45.6016C1335.39 42.5165 1337.09 38.5034 1337.09 34.2395V31.305C1337.09 27.0662 1335.39 23.028 1332.35 19.968Z" fill="#CFCFDE"/>
<g clip-path="url(#clip1_64_94)">
<path d="M556.136 23.4658C556.136 25.2653 554.674 26.7144 552.86 26.7144C551.046 26.7144 549.586 25.2653 549.586 23.4658C549.586 21.6662 550.996 20.2172 552.86 20.2172C554.725 20.2671 556.136 21.7166 556.136 23.4658ZM542.633 30.0139V30.8138C542.633 30.8138 541.071 28.8135 537.746 28.8135C532.255 28.8135 527.972 32.9624 527.972 38.7101C527.972 44.4084 532.204 48.6067 537.746 48.6067C541.122 48.6067 542.633 46.5575 542.633 46.5575V47.4068C542.633 47.8068 542.936 48.1059 543.338 48.1059H547.419V29.3118H543.338C542.936 29.3133 542.633 29.6639 542.633 30.0139ZM542.633 42.0591C541.878 43.1591 540.366 44.1088 538.552 44.1088C535.328 44.1088 532.859 42.1095 532.859 38.7101C532.859 35.3112 535.328 33.3119 538.552 33.3119C540.316 33.3119 541.928 34.3116 542.633 35.3611V42.0591ZM550.442 29.3133H555.279V48.1073H550.442V29.3133ZM622.691 28.813C619.365 28.813 617.803 30.8133 617.803 30.8133V20.2671H612.967V48.1073H617.048C617.451 48.1073 617.753 47.7573 617.753 47.4073V46.558C617.753 46.558 619.315 48.6072 622.64 48.6072C628.132 48.6072 632.414 44.4099 632.414 38.7116C632.414 33.0133 628.132 28.813 622.691 28.813ZM621.885 44.0583C620.02 44.0583 618.559 43.1096 617.803 42.0091V35.3112C618.559 34.3116 620.171 33.262 621.885 33.262C625.109 33.262 627.578 35.2613 627.578 38.6602C627.578 42.0591 625.109 44.0583 621.885 44.0583ZM610.448 36.9615V48.1573H605.611V37.5107C605.611 34.4124 604.603 33.1621 601.884 33.1621C600.424 33.1621 598.912 33.9121 597.953 35.0121V48.1079H593.117V29.3138H596.945C597.348 29.3138 597.651 29.6639 597.651 30.0139V30.8138C599.062 29.3638 600.925 28.8135 602.789 28.8135C604.906 28.8135 606.669 29.4142 608.08 30.6136C609.792 32.0132 610.448 33.8122 610.448 36.9615ZM581.377 28.813C578.052 28.813 576.49 30.8133 576.49 30.8133V20.2671H571.653V48.1073H575.734C576.137 48.1073 576.44 47.7573 576.44 47.4073V46.558C576.44 46.558 578.002 48.6072 581.326 48.6072C586.818 48.6072 591.101 44.4099 591.101 38.7116C591.151 33.0128 586.869 28.813 581.377 28.813ZM580.57 44.0583C578.706 44.0583 577.246 43.1096 576.49 42.0091V35.3112C577.246 34.3116 578.858 33.262 580.57 33.262C583.796 33.262 586.264 35.2613 586.264 38.6602C586.264 42.0591 583.796 44.0583 580.57 44.0583ZM567.471 28.813C568.932 28.813 569.688 29.0637 569.688 29.0637V33.5116C569.688 33.5116 565.657 32.162 563.139 35.0116V48.1568H558.301V29.3133H562.383C562.786 29.3133 563.088 29.6634 563.088 30.0134V30.8133C563.995 29.7632 565.96 28.813 567.471 28.813ZM517.241 46.4077C516.989 45.808 516.737 45.1584 516.485 44.6081C516.082 43.7088 515.679 42.8585 515.327 42.0591L515.276 42.0091C511.799 34.5113 508.072 26.9146 504.141 19.4177L503.99 19.1171C503.577 18.3394 503.174 17.5563 502.782 16.7678C502.278 15.8676 501.774 14.9188 500.968 14.0186C499.356 12.0193 497.038 10.9193 494.57 10.9193C492.05 10.9193 489.783 12.0193 488.121 13.9182C487.365 14.8175 486.811 15.7672 486.307 16.6675C485.914 17.4554 485.511 18.2386 485.099 19.0168L484.947 19.3174C481.068 26.8142 477.289 34.4114 473.813 41.9088L473.762 42.0081C473.41 42.809 473.006 43.6584 472.603 44.5572C472.351 45.1074 472.1 45.7071 471.848 46.3567C471.193 48.2057 470.991 49.9554 471.244 51.7554C471.798 55.5043 474.316 58.6521 477.793 60.0527C479.103 60.6029 480.464 60.8526 481.874 60.8526C482.277 60.8526 482.781 60.8027 483.184 60.7522C484.847 60.5525 486.56 60.0032 488.223 59.0535C490.289 57.9036 492.254 56.2548 494.47 53.8556C496.687 56.2548 498.702 57.9036 500.717 59.0535C502.381 60.0032 504.093 60.5525 505.756 60.7522C506.159 60.8032 506.663 60.8526 507.066 60.8526C508.477 60.8526 509.887 60.6029 511.147 60.0527C514.674 58.6521 517.142 55.4544 517.697 51.7554C518.097 50.0063 517.896 48.2577 517.241 46.4077ZM494.519 49.0066C491.798 45.6077 490.034 42.4091 489.43 39.7107C489.179 38.5608 489.128 37.5612 489.279 36.6614C489.38 35.8615 489.683 35.1614 490.086 34.5617C491.043 33.213 492.655 32.3627 494.52 32.3627C496.384 32.3627 498.047 33.1626 498.954 34.5617C499.357 35.1614 499.659 35.862 499.761 36.6614C499.911 37.5617 499.861 38.6107 499.609 39.7107C499.003 42.3591 497.239 45.5583 494.519 49.0066ZM514.621 51.356C514.268 53.9549 512.505 56.2049 510.036 57.2045C508.827 57.7038 507.517 57.8541 506.208 57.7038C504.948 57.5535 503.688 57.1536 502.379 56.4046C500.565 55.404 498.751 53.8556 496.635 51.5557C499.96 47.5077 501.975 43.8082 502.731 40.5102C503.084 38.9603 503.135 37.5611 502.983 36.2609C502.782 35.0116 502.328 33.8617 501.623 32.862C500.06 30.6121 497.44 29.3133 494.519 29.3133C491.597 29.3133 488.977 30.663 487.415 32.862C486.71 33.8617 486.256 35.0116 486.055 36.2609C485.853 37.5611 485.903 39.0102 486.306 40.5102C487.062 43.8082 489.127 47.5571 492.402 51.6056C490.336 53.905 488.472 55.4549 486.658 56.4546C485.348 57.2045 484.089 57.6045 482.83 57.7538C481.47 57.9041 480.159 57.7039 479.001 57.2545C476.532 56.2548 474.769 54.0049 474.417 51.4059C474.266 50.1566 474.366 48.9073 474.87 47.5077C475.02 47.0073 475.273 46.508 475.525 45.9083C475.878 45.1084 476.28 44.2581 476.683 43.4087L476.734 43.3094C480.21 35.8615 483.938 28.2642 487.818 20.8673L487.969 20.5667C488.372 19.8177 488.776 19.0178 489.178 18.2678C489.581 17.4679 490.034 16.7179 490.589 16.0678C491.647 14.8694 493.057 14.2188 494.62 14.2188C496.182 14.2188 497.592 14.8694 498.65 16.0678C499.205 16.7194 499.658 17.4694 500.061 18.2678C500.465 19.0178 500.868 19.8177 501.27 20.5667L501.422 20.8673C505.242 28.295 508.92 35.7937 512.455 43.3593V43.4092C512.859 44.2101 513.211 45.1089 513.614 45.9098C513.866 46.5085 514.118 47.0079 514.269 47.5082C514.671 48.8064 514.822 50.0567 514.621 51.356Z" fill="#CFCFDE"/>
</g>
<g clip-path="url(#clip2_64_94)">
<path d="M387.28 39.5213L395.376 60.8142C392.99 60.4757 390.606 60.0516 388.178 59.6696L383.617 47.9045L378.931 58.6984C376.631 58.3164 374.372 58.1892 372.072 57.8925L380.294 39.2681L372.836 20.179H379.739L383.914 30.8444L388.389 20.179H395.375L387.28 39.5213ZM367.386 20.179H361.122V57.0893C363.167 57.2167 365.297 57.3006 367.386 57.5539V20.179ZM355.711 56.6654C350.003 56.2847 344.293 55.9475 338.456 55.8188V20.1791H344.846V49.8088C348.511 49.8928 352.174 50.1882 355.711 50.3574V56.6654ZM331.638 34.6139V40.9625H322.904V55.3961H316.599V20.179H334.494V26.5275H322.905V34.6141H331.639L331.638 34.6139ZM305.861 26.5275V55.7348C303.73 55.7348 301.559 55.7348 299.47 55.8188V26.5275H292.866V20.179H312.506V26.5275H305.861ZM285.964 41.2998C283.153 41.2998 279.829 41.2998 277.443 41.4285V50.8666C281.192 50.612 284.942 50.3167 288.733 50.1895V56.2847L271.053 57.6826V20.179H288.732V26.5275H277.443V35.0785C279.915 35.0785 283.706 34.9513 285.964 34.9513V41.3011L285.964 41.2998ZM250.557 37.7442V59.9242C248.258 60.1789 246.212 60.4755 244.04 60.8142V20.179H250.133L258.44 43.2491V20.179H264.832V58.1892C262.574 58.5712 260.272 58.6984 257.844 59.0358L250.557 37.7442Z" fill="#CFCFDE"/>
</g>
<g clip-path="url(#clip3_64_94)">
<path fill-rule="evenodd" clip-rule="evenodd" d="M803.483 58.4894C794.588 65.0433 781.65 68.5352 770.492 68.5352C754.859 68.5352 740.843 62.7871 730.169 53.2248C729.361 52.4727 730.061 51.452 731.086 52.0429C742.568 58.7043 756.745 62.6796 771.408 62.6796C781.273 62.6796 792.162 60.6382 802.189 56.3943C803.698 55.8034 804.938 57.415 803.483 58.4894Z" fill="#CFCFDE"/>
<path fill-rule="evenodd" clip-rule="evenodd" d="M807.202 54.2454C806.07 52.795 799.655 53.5471 796.798 53.9231C795.936 54.0306 795.774 53.2785 796.583 52.7413C801.704 49.142 810.059 50.2164 811.03 51.3982C812 52.5801 810.76 60.9605 805.962 64.9358C805.208 65.5268 804.507 65.2044 804.83 64.3986C805.908 61.7126 808.334 55.7496 807.202 54.2454Z" fill="#CFCFDE"/>
<path fill-rule="evenodd" clip-rule="evenodd" d="M796.96 27.4926V24.0008C796.96 23.4636 797.337 23.1412 797.822 23.1412H813.455C813.941 23.1412 814.372 23.5173 814.372 24.0008V26.9554C814.372 27.4389 813.941 28.0835 813.186 29.158L805.1 40.6542C808.119 40.6004 811.299 41.0302 813.994 42.5344C814.587 42.8567 814.749 43.3939 814.803 43.8774V47.5841C814.803 48.1213 814.264 48.7123 813.671 48.3899C808.873 45.8651 802.458 45.5965 797.176 48.4437C796.636 48.7123 796.043 48.1751 796.043 47.6378V44.0923C796.043 43.5551 796.043 42.5881 796.636 41.7286L806.016 28.3521H797.876C797.391 28.3521 796.96 27.9761 796.96 27.4926ZM739.98 49.142H735.237C734.805 49.0883 734.428 48.766 734.374 48.3362V24.0545C734.374 23.571 734.805 23.195 735.29 23.195H739.711C740.196 23.195 740.519 23.571 740.573 24.0008V27.1703H740.681C741.813 24.1082 744.023 22.6578 746.934 22.6578C749.899 22.6578 751.786 24.1082 753.08 27.1703C754.212 24.1082 756.853 22.6578 759.656 22.6578C761.651 22.6578 763.807 23.4636 765.155 25.3438C766.664 27.3852 766.341 30.3398 766.341 32.9721V48.3362C766.341 48.8197 765.91 49.1957 765.424 49.1957H760.735C760.249 49.142 759.872 48.766 759.872 48.3362V35.4433C759.872 34.4226 759.98 31.844 759.764 30.877C759.387 29.2654 758.363 28.7819 756.961 28.7819C755.829 28.7819 754.589 29.534 754.104 30.7696C753.619 32.0051 753.673 34.0465 753.673 35.4433V48.3362C753.673 48.8197 753.241 49.1957 752.756 49.1957H748.012C747.527 49.142 747.15 48.766 747.15 48.3362V35.4433C747.15 32.7572 747.581 28.7282 744.239 28.7282C740.843 28.7282 740.951 32.5961 740.951 35.4433V48.3362C740.897 48.766 740.519 49.142 739.98 49.142ZM827.849 22.6578C834.91 22.6578 838.738 28.6745 838.738 36.3565C838.738 43.77 834.533 49.6792 827.849 49.6792C820.948 49.6792 817.175 43.6625 817.175 36.1416C817.121 28.567 820.948 22.6578 827.849 22.6578ZM827.849 27.6538C824.345 27.6538 824.129 32.4349 824.129 35.3895C824.129 38.3442 824.075 44.6832 827.795 44.6832C831.46 44.6832 831.676 39.5798 831.676 36.464C831.676 34.4226 831.568 31.9514 830.975 30.0175C830.436 28.2984 829.358 27.6538 827.849 27.6538ZM847.848 49.142H843.104C842.619 49.0883 842.242 48.7123 842.242 48.2825V23.947C842.296 23.5173 842.673 23.1412 843.158 23.1412H847.578C848.01 23.1412 848.333 23.4636 848.441 23.8396V27.5463H848.549C849.896 24.2157 851.729 22.6578 855.018 22.6578C857.12 22.6578 859.222 23.4098 860.57 25.5049C861.81 27.4389 861.81 30.7158 861.81 33.0796V48.3899C861.756 48.8197 861.379 49.142 860.893 49.142H856.15C855.718 49.0883 855.341 48.766 855.287 48.3899V35.1747C855.287 32.4886 855.611 28.6207 852.322 28.6207C851.19 28.6207 850.112 29.3728 849.573 30.5547C848.926 32.0589 848.818 33.5093 848.818 35.1747V48.2825C848.764 48.766 848.333 49.142 847.848 49.142ZM784.507 37.5384C784.507 39.3649 784.561 40.9228 783.645 42.5881C782.89 43.9311 781.704 44.7369 780.357 44.7369C778.524 44.7369 777.446 43.3402 777.446 41.2988C777.446 37.2698 781.057 36.5177 784.507 36.5177V37.5384ZM789.305 49.0883C788.982 49.3569 788.55 49.4106 788.173 49.1957C786.61 47.9064 786.286 47.2618 785.424 46.0262C782.836 48.6585 780.95 49.4643 777.607 49.4643C773.618 49.4643 770.492 46.9932 770.492 42.1046C770.492 38.2367 772.594 35.6581 775.559 34.3688C778.146 33.2407 781.758 33.0258 784.507 32.7035V32.1126C784.507 30.9845 784.615 29.6414 783.914 28.6745C783.321 27.8149 782.243 27.4389 781.273 27.4389C779.44 27.4389 777.823 28.3521 777.446 30.2861C777.338 30.7159 777.068 31.1456 776.637 31.1456L772.055 30.6621C771.678 30.5547 771.246 30.2861 771.354 29.6952C772.432 24.1082 777.446 22.4429 781.974 22.4429C784.292 22.4429 787.311 23.0338 789.143 24.8066C791.461 26.9554 791.246 29.8563 791.246 32.9721V40.3318C791.246 42.5344 792.162 43.5014 793.025 44.7369C793.348 45.1667 793.402 45.7039 793.025 45.9725C792 46.7783 790.275 48.2825 789.305 49.0883ZM722.245 37.5384C722.245 39.3649 722.299 40.9228 721.383 42.5881C720.628 43.9311 719.442 44.7369 718.094 44.7369C716.261 44.7369 715.183 43.3402 715.183 41.2988C715.183 37.2698 718.795 36.5177 722.245 36.5177V37.5384ZM726.989 49.0883C726.665 49.3569 726.234 49.4106 725.857 49.1957C724.293 47.9064 723.97 47.2618 723.108 46.0262C720.52 48.6585 718.633 49.4643 715.291 49.4643C711.302 49.4643 708.175 46.9932 708.175 42.1046C708.175 38.2367 710.278 35.6581 713.243 34.3688C715.83 33.2407 719.442 33.0258 722.191 32.7035V32.1126C722.191 30.9845 722.299 29.6414 721.598 28.6745C721.005 27.8149 719.927 27.4389 718.957 27.4389C717.124 27.4389 715.507 28.3521 715.129 30.2861C715.022 30.7159 714.752 31.1456 714.321 31.1456L709.739 30.6621C709.361 30.5547 708.93 30.2861 709.038 29.6952C710.116 24.1082 715.129 22.4429 719.658 22.4429C721.976 22.4429 724.994 23.0338 726.827 24.8066C729.145 26.9554 728.929 29.8563 728.929 32.9721V40.3318C728.929 42.5344 729.846 43.5014 730.708 44.7369C731.032 45.1667 731.086 45.7039 730.708 45.9725C729.684 46.7783 727.959 48.2825 726.989 49.0883Z" fill="#CFCFDE"/>
</g>
<path d="M1037.1 30.3433C1035.5 30.3433 1034.35 30.8688 1033.19 31.4042V43.5177C1034.3 43.6246 1034.95 43.6246 1036.01 43.6246C1039.84 43.6246 1040.36 41.8632 1040.36 39.4038V33.6183C1040.36 31.8021 1039.76 30.3433 1037.1 30.3433ZM1011.65 29.6822C1008.99 29.6822 1008.38 31.1473 1008.38 32.9617V33.9812H1014.91V32.9617C1014.91 31.1473 1014.3 29.6822 1011.65 29.6822ZM962.344 42.2907C962.344 43.7261 963.019 44.4716 964.508 44.4716C966.105 44.4716 967.051 43.9489 968.218 43.4117V40.5383H964.724C963.07 40.5383 962.344 40.8473 962.344 42.2907ZM1061.86 30.3433C1059.2 30.3433 1058.27 31.8021 1058.27 33.6183V40.2464C1058.27 42.0671 1059.2 43.5303 1061.86 43.5303C1064.52 43.5303 1065.45 42.0671 1065.45 40.2464V33.6183C1065.44 31.8021 1064.52 30.3433 1061.86 30.3433ZM949.291 49.7227H941.462V30.7035H937.55V24.15H941.462V20.214C941.462 14.8668 943.67 11.6879 949.946 11.6879H955.171V18.2432H951.905C949.462 18.2432 949.301 19.1594 949.301 20.8688L949.291 24.1491H955.207L954.515 30.7026H949.291V49.7227ZM976.049 49.7721H969.523L969.241 48.1158C966.262 49.7721 963.603 50.0407 961.849 50.0407C957.063 50.0407 954.516 46.8322 954.516 42.3949C954.516 37.16 957.488 35.2917 962.806 35.2917H968.218V34.1599C968.218 31.4877 967.912 30.7035 963.818 30.7035H957.123L957.777 24.15H965.095C974.079 24.15 976.049 26.9983 976.049 34.2129V49.7721ZM998.239 31.1841C994.178 30.4853 993.012 30.3317 991.058 30.3317C987.549 30.3317 986.488 31.1086 986.488 34.0997V39.7577C986.488 42.7488 987.549 43.5294 991.058 43.5294C993.012 43.5294 994.178 43.3731 998.239 42.6716V49.0643C994.682 49.8646 992.365 50.0748 990.406 50.0748C982.001 50.0748 978.66 45.6385 978.66 39.2296V34.6387C978.66 28.2244 982.001 23.7799 990.406 23.7799C992.365 23.7799 994.682 23.991 998.239 24.7949V31.1841ZM1022.74 39.2296H1008.38V39.7577C1008.38 42.7488 1009.44 43.5294 1012.95 43.5294C1016.11 43.5294 1018.03 43.3731 1022.08 42.6716V49.0643C1018.18 49.8646 1016.14 50.0748 1012.3 50.0748C1003.9 50.0748 1000.55 45.6385 1000.55 39.2296V33.9803C1000.55 28.3726 1003.03 23.7799 1011.65 23.7799C1020.26 23.7799 1022.74 28.3196 1022.74 33.9803V39.2296ZM1048.19 39.3508C1048.19 45.545 1046.43 50.0632 1035.74 50.0632C1031.88 50.0632 1029.62 49.7227 1025.36 49.0652V13.6569L1033.19 12.3463V24.7321C1034.88 24.1015 1037.07 23.7808 1039.06 23.7808C1046.89 23.7808 1048.19 27.3028 1048.19 32.9626V39.3508H1048.19ZM1073.28 39.4856C1073.28 44.8292 1071.08 50.012 1061.89 50.012C1052.68 50.012 1050.44 44.8292 1050.44 39.4856V34.3261C1050.44 28.9798 1052.68 23.7961 1061.89 23.7961C1071.08 23.7961 1073.28 28.9798 1073.28 34.3261V39.4856ZM1098.35 39.4856C1098.35 44.8292 1096.15 50.012 1086.96 50.012C1077.76 50.012 1075.52 44.8292 1075.52 39.4856V34.3261C1075.52 28.9798 1077.76 23.7961 1086.96 23.7961C1096.15 23.7961 1098.35 28.9798 1098.35 34.3261V39.4856ZM1124.08 49.7227H1115.6L1108.42 37.7017V49.7227H1100.6V13.656L1108.42 12.3454V35.5639L1115.6 24.15H1124.08L1116.25 36.6058L1124.08 49.7227ZM1086.93 30.3433C1084.27 30.3433 1083.35 31.8021 1083.35 33.6183V40.2464C1083.35 42.0671 1084.27 43.5303 1086.93 43.5303C1089.59 43.5303 1090.53 42.0671 1090.53 40.2464V33.6183C1090.53 31.8021 1089.59 30.3433 1086.93 30.3433ZM1128.55 45.2369C1129.87 45.2369 1130.92 46.3157 1130.92 47.6631C1130.92 49.0311 1129.87 50.0982 1128.54 50.0982C1127.22 50.0982 1126.15 49.0311 1126.15 47.6631C1126.15 46.3157 1127.22 45.2369 1128.54 45.2369H1128.55ZM1128.54 45.6142C1127.48 45.6142 1126.61 46.5313 1126.61 47.6631C1126.61 48.8155 1127.48 49.7209 1128.55 49.7209C1129.62 49.7317 1130.48 48.8155 1130.48 47.6739C1130.48 46.5322 1129.62 45.6142 1128.55 45.6142H1128.54ZM1128.09 49.0751H1127.66V46.3678C1127.89 46.3364 1128.1 46.3049 1128.43 46.3049C1128.83 46.3049 1129.1 46.3912 1129.26 46.5088C1129.42 46.6283 1129.51 46.8107 1129.51 47.0684C1129.51 47.4259 1129.27 47.6406 1128.98 47.7277V47.7484C1129.22 47.7924 1129.38 48.0062 1129.43 48.4041C1129.5 48.8254 1129.56 48.9862 1129.6 49.0742H1129.15C1129.09 48.9862 1129.02 48.7392 1128.97 48.3826C1128.91 48.0385 1128.73 47.9092 1128.39 47.9092H1128.09V49.0751H1128.09ZM1128.09 47.5768H1128.4C1128.76 47.5768 1129.06 47.4466 1129.06 47.1116C1129.06 46.8744 1128.89 46.6382 1128.4 46.6382C1128.26 46.6382 1128.17 46.649 1128.09 46.6589V47.5768Z" fill="#CFCFDE"/>
<defs>
<clipPath id="clip0_64_94">
<rect width="168.303" height="54.6985" fill="white" transform="translate(0 10.9198)"/>
</clipPath>
<clipPath id="clip1_64_94">
<rect width="161.323" height="49.9333" fill="white" transform="translate(471.113 10.9198)"/>
</clipPath>
<clipPath id="clip2_64_94">
<rect width="151.336" height="40.7149" fill="white" transform="translate(244.04 20.1382)"/>
</clipPath>
<clipPath id="clip3_64_94">
<rect width="153.641" height="46.0923" fill="white" transform="matrix(-1 0 0 -1 861.813 68.5352)"/>
</clipPath>
</defs>
</svg>
