<svg width="85" height="39" viewBox="0 0 85 39" fill="none" xmlns="http://www.w3.org/2000/svg">
<path d="M1.67816 13.7376C4.58797 10.5543 12.4301 4.58347 20.5199 6.16651C30.6322 8.14531 36.2502 13.7376 49.2147 13.7376C62.1792 13.7376 72.5508 -0.458118 83.8732 2.55306" stroke="#B2C4F0" stroke-width="3"/>
<path d="M1.67816 25.3411C4.58797 22.1578 12.4301 16.187 20.5199 17.77C30.6322 19.7488 36.2502 25.3411 49.2147 25.3411C62.1792 25.3411 72.5508 11.1454 83.8732 14.1566" stroke="#B2C4F0" stroke-width="3"/>
<path d="M1.67816 36.9446C4.58797 33.7613 12.4301 27.7905 20.5199 29.3735C30.6322 31.3523 36.2502 36.9446 49.2147 36.9446C62.1792 36.9446 72.5508 22.7489 83.8732 25.7601" stroke="#B2C4F0" stroke-width="3"/>
</svg>
