<svg width="14" height="14" viewBox="0 0 14 14" fill="none" xmlns="http://www.w3.org/2000/svg">
<g clip-path="url(#clip0_163_16)">
<path d="M13.3858 1.44243L10.7672 0.838134C10.4827 0.772668 10.1906 0.921224 10.0748 1.18812L8.8662 4.00815C8.76044 4.2549 8.83095 4.54446 9.03993 4.71316L10.5658 5.96203C9.65933 7.89325 8.07558 9.49966 6.10407 10.4237L4.8552 8.89789C4.68399 8.6889 4.39695 8.6184 4.15019 8.72415L1.33016 9.93274C1.06075 10.0511 0.912192 10.3432 0.977657 10.6277L1.58195 13.2463C1.6449 13.5182 1.88661 13.7146 2.17114 13.7146C8.61944 13.7146 13.8541 8.48999 13.8541 2.03161C13.8541 1.74961 13.6603 1.50537 13.3858 1.44243Z" fill="white"/>
</g>
<defs>
<clipPath id="clip0_163_16">
<rect x="0.962936" y="0.823242" width="12.8916" height="12.8916" fill="white"/>
</clipPath>
</defs>
</svg>
