<svg width="161" height="161" viewBox="0 0 161 161" fill="none" xmlns="http://www.w3.org/2000/svg">
<g opacity="0.8" filter="url(#filter0_d_125_16)">
<circle cx="78.5" cy="70.5" r="46.5" fill="#F9F9F9"/>
</g>
<g filter="url(#filter1_d_125_16)">
<circle cx="78.5" cy="70.5" r="36.5" fill="#F9F9F9"/>
</g>
<path d="M98.5587 66.5771C97.3533 65.5916 95.6462 65.2762 94.209 65.7732C93.8239 65.9066 93.4663 66.0936 93.1459 66.3293C92.3289 66.9304 90.5148 68.7348 89.0773 70.5205V56.7553C89.0773 55.5852 88.5964 54.4417 87.7578 53.6175C86.9254 52.7993 85.8319 52.358 84.6844 52.3795C84.1634 52.3888 83.6642 52.4921 83.2029 52.6727V51.3282C83.2029 50.0548 82.6794 48.8101 81.7661 47.9125C80.8611 47.0229 79.6768 46.5433 78.4241 46.5662C75.9267 46.6095 73.8878 48.6395 73.8131 51.1211C73.272 50.8758 72.6845 50.7382 72.0763 50.7199C70.8075 50.6827 69.551 51.1737 68.6298 52.068C67.7277 52.9438 67.2306 54.0998 67.2306 55.3199L67.2274 56.6237C66.838 56.4957 66.4228 56.4256 65.9912 56.4256C63.8132 56.4256 62.0413 58.1974 62.0413 60.3751L62.0428 80.3849L62.046 80.4797C62.228 83.1058 62.7776 85.3543 63.6801 87.163C64.5262 88.8586 65.7066 90.2239 67.1884 91.2208C70.1045 93.1833 73.7069 93.435 76.5193 93.435C82.0422 93.435 87.0108 90.6891 89.4957 86.2665C89.7979 85.7795 90.5942 84.5272 91.4542 83.1766C92.2917 81.8607 93.0709 80.6481 93.7578 79.5782C94.1354 78.99 94.479 78.455 94.7773 77.9887C95.8883 76.2512 97.0722 74.5666 98.2966 72.9815C98.7508 72.3936 98.8906 72.2341 98.9224 72.1991C99.4956 71.5736 99.8568 70.808 99.9669 69.9845C100.14 68.6926 99.6268 67.4503 98.5587 66.5771ZM97.2421 69.6198C97.2067 69.883 97.0869 70.1326 96.8956 70.3414C96.7958 70.4505 96.6174 70.6579 96.1211 71.3008C94.847 72.95 93.6155 74.7018 92.4608 76.5076C92.1633 76.9728 91.8211 77.5056 91.4442 78.0924C90.7558 79.1645 89.9756 80.3799 89.1349 81.7001C88.2549 83.0825 87.4403 84.3631 87.1421 84.8447L87.111 84.8977C85.1167 88.4678 81.0585 90.6855 76.5196 90.6855C74.0977 90.6855 71.0225 90.4871 68.7235 88.9402C66.3778 87.3618 65.0919 84.5476 64.7922 80.3366L64.7908 60.3755C64.7908 59.7136 65.3293 59.1751 65.9912 59.1751C66.657 59.1751 67.1988 59.7136 67.1988 60.3755V67.8637C67.1988 67.8859 67.2013 67.9073 67.202 67.9295C67.2034 67.9538 67.2034 67.9785 67.2059 68.0028C67.2081 68.0246 67.2124 68.0457 67.2156 68.0671C67.2192 68.0911 67.2217 68.1154 67.2263 68.1394C67.231 68.1608 67.2374 68.1819 67.2428 68.203C67.2485 68.2256 67.2531 68.2488 67.2603 68.271C67.2667 68.2924 67.2753 68.3132 67.2832 68.3339C67.2907 68.355 67.2975 68.3765 67.3064 68.3972C67.315 68.4179 67.3254 68.4376 67.335 68.4576C67.3447 68.4777 67.3536 68.498 67.364 68.5177C67.3744 68.537 67.3869 68.5556 67.3983 68.5746C67.4098 68.5935 67.4205 68.6128 67.4326 68.6311C67.4452 68.6493 67.4591 68.6665 67.4723 68.684C67.4856 68.7019 67.4977 68.7201 67.5117 68.7369C67.5256 68.7537 67.541 68.7691 67.5553 68.7852C67.5703 68.8016 67.5846 68.8192 67.6004 68.8349C67.6157 68.8499 67.6318 68.8635 67.6479 68.8782C67.6644 68.8932 67.6805 68.9093 67.698 68.9236C67.7144 68.9372 67.7319 68.9493 67.7491 68.9622C67.7673 68.9758 67.7849 68.9901 67.8035 69.003C67.821 69.0148 67.8396 69.0248 67.8575 69.0355C67.8771 69.0476 67.8964 69.0605 67.9168 69.072C67.9354 69.082 67.9551 69.0902 67.974 69.0995C67.9948 69.1099 68.0155 69.1206 68.037 69.1299C68.0566 69.1385 68.0777 69.1449 68.0978 69.1524C68.1196 69.1603 68.141 69.1692 68.1632 69.1764C68.1843 69.1828 68.2065 69.1875 68.2279 69.1932C68.2504 69.1989 68.2723 69.2057 68.2948 69.2104C68.3177 69.215 68.3406 69.2175 68.3634 69.2211C68.3863 69.2243 68.4085 69.2289 68.4314 69.2314C68.4543 69.2336 68.4779 69.234 68.5011 69.235C68.524 69.2361 68.5469 69.2386 68.5701 69.2386C68.5712 69.2386 68.5726 69.2386 68.5737 69.2386C68.6213 69.2386 68.6681 69.2361 68.7142 69.2314C68.7343 69.2297 68.7539 69.2254 68.774 69.2225C68.7993 69.2189 68.8254 69.2161 68.8505 69.2107C68.8769 69.2053 68.9023 69.1978 68.9281 69.191C68.946 69.186 68.9645 69.1825 68.9821 69.1771C69.0107 69.1682 69.0386 69.1571 69.0665 69.1463C69.08 69.141 69.0947 69.1367 69.1083 69.131C69.1362 69.1192 69.1626 69.1052 69.1895 69.092C69.2023 69.0856 69.2156 69.0802 69.2284 69.0734C69.2535 69.0598 69.2771 69.0441 69.301 69.0291C69.3146 69.0208 69.3286 69.0133 69.3414 69.0044C69.3636 68.9897 69.3847 68.9729 69.4058 68.9565C69.4198 68.9461 69.4341 68.9364 69.4473 68.9254C69.467 68.9096 69.4848 68.8917 69.5034 68.8746C69.5174 68.8621 69.5317 68.8499 69.5453 68.837C69.5624 68.8199 69.5778 68.8013 69.5939 68.7834C69.6071 68.7687 69.6214 68.7544 69.6339 68.7394C69.6482 68.7219 69.6611 68.7033 69.6747 68.6851C69.6876 68.6679 69.7012 68.6514 69.713 68.6336C69.7255 68.6153 69.7359 68.5964 69.7473 68.5774C69.7587 68.5585 69.7713 68.5399 69.782 68.5206C69.7924 68.5013 69.8009 68.4812 69.8106 68.4616C69.8202 68.4412 69.831 68.4212 69.8399 68.4004C69.8485 68.3804 69.8549 68.3593 69.8624 68.3389C69.8707 68.3175 69.8793 68.2964 69.8864 68.2742C69.8928 68.2531 69.8975 68.2316 69.9029 68.2102C69.9086 68.1877 69.9154 68.1655 69.9204 68.1426C69.9247 68.1211 69.9272 68.0986 69.9304 68.0764C69.9343 68.0532 69.9386 68.03 69.9411 68.0064C69.9436 67.9842 69.9436 67.9613 69.9447 67.9388C69.9461 67.9148 69.9486 67.8916 69.9486 67.8676L69.9804 55.3235C69.9804 54.8501 70.1811 54.3945 70.5451 54.0408C70.9363 53.6614 71.4655 53.4519 71.9951 53.4683C72.987 53.498 73.7941 54.3609 73.7941 55.3939L73.8098 67.7911C73.8098 67.8161 73.8123 67.8404 73.8138 67.8648C73.8148 67.8866 73.8148 67.9091 73.817 67.9306C73.8195 67.9563 73.8245 67.981 73.8284 68.006C73.8316 68.0264 73.8338 68.0471 73.8377 68.0671C73.8434 68.0943 73.8513 68.1208 73.8585 68.1472C73.8631 68.1644 73.8667 68.1819 73.8717 68.1987C73.8806 68.2273 73.8921 68.2552 73.9028 68.2831C73.9082 68.2971 73.9121 68.3114 73.9178 68.325C73.9307 68.3546 73.9454 68.3836 73.96 68.4122C73.9657 68.4229 73.97 68.4344 73.9758 68.4448C73.9918 68.4744 74.0101 68.5027 74.028 68.5306C74.0337 68.5399 74.0387 68.5492 74.0448 68.5581C74.0637 68.5864 74.0845 68.6128 74.1052 68.6393C74.1116 68.6475 74.1174 68.6561 74.1238 68.664C74.147 68.6922 74.1721 68.7187 74.1975 68.7448C74.2028 68.7505 74.2071 68.7562 74.2125 68.7616C74.2386 68.7877 74.2665 68.812 74.2947 68.836C74.3001 68.8406 74.3047 68.8456 74.3101 68.8503C74.3383 68.8735 74.3677 68.8946 74.3974 68.9153C74.4038 68.92 74.4095 68.925 74.4159 68.9293C74.446 68.9497 74.4774 68.9679 74.5089 68.9858C74.5157 68.9897 74.5221 68.9944 74.5293 68.9983C74.5622 69.0158 74.5962 69.0316 74.6305 69.0469C74.6369 69.0498 74.643 69.0534 74.6494 69.0562C74.6845 69.0709 74.7206 69.0834 74.7571 69.0956C74.7635 69.0974 74.7692 69.1002 74.7757 69.1024C74.8118 69.1134 74.8486 69.1224 74.8855 69.1306C74.893 69.132 74.9001 69.1345 74.9076 69.1363C74.997 69.1546 75.0896 69.1642 75.1844 69.1642C75.1851 69.1642 75.1858 69.1642 75.1865 69.1642C75.2105 69.1642 75.2341 69.1617 75.2577 69.1606C75.2806 69.1592 75.3035 69.1592 75.326 69.1571C75.351 69.1542 75.375 69.1496 75.3997 69.1456C75.4204 69.1424 75.4419 69.1403 75.4626 69.136C75.4873 69.131 75.5112 69.1238 75.5355 69.1174C75.5552 69.112 75.5749 69.1081 75.5942 69.102C75.6189 69.0945 75.6425 69.0848 75.6664 69.0755C75.6843 69.0687 75.7029 69.0634 75.7204 69.0559C75.7451 69.0451 75.7691 69.0326 75.793 69.0208C75.8087 69.013 75.8252 69.0062 75.8406 68.9979C75.8642 68.9851 75.8867 68.9701 75.9096 68.9561C75.9242 68.9468 75.9396 68.9386 75.9539 68.9289C75.9757 68.9143 75.9961 68.8978 76.0169 68.8817C76.0312 68.871 76.0458 68.861 76.0598 68.8495C76.0794 68.8335 76.098 68.8152 76.117 68.7977C76.1302 68.7855 76.1442 68.7737 76.1574 68.7609C76.1749 68.743 76.1914 68.7237 76.2082 68.7051C76.2207 68.6911 76.2339 68.6779 76.2461 68.6632C76.2611 68.6446 76.2747 68.625 76.2886 68.606C76.3008 68.5896 76.3137 68.5738 76.3251 68.5574C76.338 68.5384 76.3487 68.5184 76.3605 68.4988C76.3716 68.4805 76.3837 68.4626 76.3938 68.444C76.4045 68.4244 76.4131 68.4036 76.4227 68.3836C76.4324 68.3636 76.4431 68.3443 76.4517 68.3235C76.4599 68.3039 76.4667 68.2831 76.4739 68.2627C76.4821 68.2409 76.491 68.2195 76.4978 68.1973C76.5042 68.1759 76.5089 68.154 76.5146 68.1322C76.5203 68.1101 76.5271 68.0882 76.5314 68.0657C76.5361 68.0432 76.5386 68.0199 76.5422 67.9974C76.5454 67.9745 76.55 67.952 76.5522 67.9291C76.5547 67.9059 76.5547 67.8823 76.5557 67.8587C76.5572 67.8354 76.5593 67.8129 76.5593 67.7893V51.2624C76.5593 50.2068 77.4175 49.3336 78.472 49.3153C78.9809 49.3082 79.4643 49.5049 79.8395 49.8735C80.2299 50.2572 80.4538 50.7875 80.4538 51.3282V67.8651C80.4538 67.8901 80.4563 67.9145 80.4577 67.9391C80.4588 67.9609 80.4588 67.9831 80.4609 68.0049C80.4634 68.0292 80.4684 68.0528 80.472 68.0768C80.4756 68.0986 80.4777 68.1204 80.482 68.1415C80.487 68.1655 80.4942 68.1887 80.5003 68.2123C80.5056 68.2327 80.5096 68.2531 80.516 68.2731C80.5239 68.2985 80.5339 68.3232 80.5432 68.3479C80.5496 68.365 80.555 68.3825 80.5621 68.3993C80.5732 68.4251 80.5861 68.4498 80.5986 68.4748C80.6058 68.4895 80.6122 68.5048 80.6201 68.5195C80.6337 68.5449 80.6494 68.5688 80.6648 68.5932C80.673 68.606 80.6801 68.62 80.6891 68.6329C80.7055 68.6572 80.7238 68.6804 80.742 68.7037C80.7509 68.7151 80.7588 68.7273 80.7681 68.7383C80.7881 68.763 80.8103 68.7859 80.8321 68.8091C80.8407 68.8177 80.8482 68.8274 80.8568 68.836C80.8793 68.8588 80.9036 68.8796 80.9279 68.9007C80.9369 68.9085 80.9451 68.9171 80.9544 68.9246C80.9816 68.9472 81.0102 68.9676 81.0388 68.9879C81.0459 68.9929 81.0527 68.9987 81.0603 69.004C81.091 69.0248 81.1232 69.0437 81.1557 69.062C81.1618 69.0652 81.1672 69.0695 81.1732 69.0727C81.209 69.092 81.2455 69.1092 81.283 69.1256C81.2866 69.127 81.2898 69.1292 81.2934 69.1306C81.3324 69.1471 81.3724 69.1614 81.4132 69.1742C81.4153 69.1753 81.4175 69.176 81.42 69.1767C81.5054 69.2036 81.5945 69.2218 81.6864 69.2314C81.6871 69.2314 81.6875 69.2314 81.6882 69.2314C81.7343 69.2361 81.7811 69.2386 81.8287 69.2386C81.8291 69.2386 81.8294 69.2386 81.8301 69.2386C81.8545 69.2386 81.8784 69.2361 81.9027 69.235C81.9253 69.2336 81.9478 69.2336 81.9699 69.2314C81.9953 69.2289 82.02 69.2239 82.045 69.22C82.0654 69.2168 82.0862 69.2146 82.1065 69.2104C82.1334 69.205 82.1591 69.1971 82.1852 69.1903C82.2027 69.1857 82.221 69.1821 82.2381 69.1767C82.266 69.1678 82.2929 69.1571 82.32 69.1467C82.3347 69.141 82.3497 69.1363 82.3644 69.1303C82.3919 69.1185 82.4184 69.1049 82.4452 69.0913C82.4581 69.0848 82.4716 69.0795 82.4845 69.0723C82.5106 69.058 82.5357 69.0419 82.561 69.0258C82.5732 69.0183 82.5857 69.0115 82.5979 69.0033C82.6236 68.9861 82.6476 68.9668 82.6719 68.9479C82.6823 68.94 82.6933 68.9325 82.7037 68.9243C82.7277 68.9043 82.7502 68.8824 82.7731 68.861C82.7824 68.8524 82.7924 68.8445 82.801 68.8356C82.8232 68.8134 82.8439 68.7898 82.8643 68.7659C82.8729 68.7566 82.8818 68.7476 82.89 68.738C82.9097 68.714 82.9276 68.6886 82.9454 68.6636C82.953 68.6529 82.9615 68.6429 82.969 68.6321C82.9859 68.6071 83.0009 68.581 83.0159 68.5549C83.023 68.5427 83.0313 68.5313 83.0381 68.5188C83.0524 68.4923 83.0645 68.4648 83.077 68.4373C83.0831 68.4244 83.0903 68.4119 83.0956 68.3986C83.1071 68.3718 83.1164 68.3439 83.126 68.3164C83.131 68.3017 83.1375 68.2874 83.1421 68.272C83.15 68.2459 83.1561 68.2184 83.1629 68.1916C83.1668 68.1744 83.1722 68.1576 83.1757 68.1405C83.1811 68.114 83.1843 68.0865 83.1882 68.0596C83.1908 68.041 83.1947 68.0228 83.1965 68.0039C83.1993 67.9788 83.1993 67.9531 83.2004 67.9273C83.2015 67.9062 83.2036 67.8855 83.2036 67.8637V56.5168C83.293 55.7497 83.9442 55.1422 84.7327 55.1286C85.1378 55.1218 85.529 55.2813 85.8312 55.5785C86.1473 55.8888 86.3286 56.3179 86.3286 56.7553V72.9822L86.3293 73.0437C86.3368 73.9344 86.9218 74.6871 87.7847 74.9167C88.6418 75.1445 89.5175 74.7844 89.9681 74.0127L89.9767 73.9974C91.0544 72.1143 93.9351 69.1628 94.7762 68.5442C94.8734 68.4723 94.9854 68.4147 95.1087 68.3718C95.6566 68.1826 96.3435 68.3167 96.8191 68.7058C97.0429 68.8892 97.2986 69.1968 97.2421 69.6198Z" fill="#F48C06"/>
<defs>
<filter id="filter0_d_125_16" x="0" y="0" width="161" height="161" filterUnits="userSpaceOnUse" color-interpolation-filters="sRGB">
<feFlood flood-opacity="0" result="BackgroundImageFix"/>
<feColorMatrix in="SourceAlpha" type="matrix" values="0 0 0 0 0 0 0 0 0 0 0 0 0 0 0 0 0 0 127 0" result="hardAlpha"/>
<feOffset dx="2" dy="10"/>
<feGaussianBlur stdDeviation="17"/>
<feColorMatrix type="matrix" values="0 0 0 0 0.0599965 0 0 0 0 0.0750638 0 0 0 0 0.154167 0 0 0 0.15 0"/>
<feBlend mode="normal" in2="BackgroundImageFix" result="effect1_dropShadow_125_16"/>
<feBlend mode="normal" in="SourceGraphic" in2="effect1_dropShadow_125_16" result="shape"/>
</filter>
<filter id="filter1_d_125_16" x="10" y="10" width="141" height="141" filterUnits="userSpaceOnUse" color-interpolation-filters="sRGB">
<feFlood flood-opacity="0" result="BackgroundImageFix"/>
<feColorMatrix in="SourceAlpha" type="matrix" values="0 0 0 0 0 0 0 0 0 0 0 0 0 0 0 0 0 0 127 0" result="hardAlpha"/>
<feOffset dx="2" dy="10"/>
<feGaussianBlur stdDeviation="17"/>
<feColorMatrix type="matrix" values="0 0 0 0 0.0599965 0 0 0 0 0.0750638 0 0 0 0 0.154167 0 0 0 0.15 0"/>
<feBlend mode="normal" in2="BackgroundImageFix" result="effect1_dropShadow_125_16"/>
<feBlend mode="normal" in="SourceGraphic" in2="effect1_dropShadow_125_16" result="shape"/>
</filter>
</defs>
</svg>
